G04*
G04 #@! TF.GenerationSoftware,Altium Limited,Altium Designer,19.0.15 (446)*
G04*
G04 Layer_Color=8388736*
%FSLAX25Y25*%
%MOIN*%
G70*
G01*
G75*
%ADD12R,0.03162X0.04343*%
%ADD13O,0.11036X0.06312*%
%ADD14R,0.11036X0.06312*%
%ADD15O,0.06312X0.11036*%
%ADD16R,0.06312X0.11036*%
%ADD17R,0.07887X0.06312*%
%ADD18O,0.07887X0.06312*%
%ADD19C,0.03162*%
D12*
X215354Y62992D02*
D03*
X221260D02*
D03*
X215748Y153543D02*
D03*
X221654D02*
D03*
X215551Y93307D02*
D03*
X221457D02*
D03*
X214370Y33465D02*
D03*
X220276D02*
D03*
X215748Y123228D02*
D03*
X221654D02*
D03*
D13*
X45512Y32362D02*
D03*
Y42362D02*
D03*
Y52362D02*
D03*
Y62362D02*
D03*
Y72362D02*
D03*
Y82362D02*
D03*
Y92362D02*
D03*
Y102362D02*
D03*
Y112362D02*
D03*
Y122362D02*
D03*
Y132362D02*
D03*
Y142362D02*
D03*
Y152362D02*
D03*
Y162362D02*
D03*
Y172362D02*
D03*
Y182362D02*
D03*
X105512Y32362D02*
D03*
Y42362D02*
D03*
Y52362D02*
D03*
Y62362D02*
D03*
Y72362D02*
D03*
Y82362D02*
D03*
Y92362D02*
D03*
Y102362D02*
D03*
Y112362D02*
D03*
Y122362D02*
D03*
Y132362D02*
D03*
Y142362D02*
D03*
Y152362D02*
D03*
Y162362D02*
D03*
Y172362D02*
D03*
D14*
Y182362D02*
D03*
D15*
X149606Y216929D02*
D03*
X223228Y183858D02*
D03*
X139606Y95276D02*
D03*
Y112992D02*
D03*
Y130315D02*
D03*
X139764Y9055D02*
D03*
X139606Y147638D02*
D03*
X149606Y26378D02*
D03*
X139606Y164961D02*
D03*
X149764Y43701D02*
D03*
Y182283D02*
D03*
Y61417D02*
D03*
X149606Y199213D02*
D03*
Y78347D02*
D03*
D16*
X139606Y216929D02*
D03*
X213228Y183858D02*
D03*
X149606Y95276D02*
D03*
Y112992D02*
D03*
Y130315D02*
D03*
X149764Y9055D02*
D03*
X149606Y147638D02*
D03*
X139606Y26378D02*
D03*
X149606Y164961D02*
D03*
X139764Y43701D02*
D03*
Y182283D02*
D03*
Y61417D02*
D03*
X139606Y199213D02*
D03*
Y78347D02*
D03*
D17*
X252795Y19842D02*
D03*
X12795D02*
D03*
X22795D02*
D03*
X262795D02*
D03*
D18*
X252795Y29842D02*
D03*
Y39843D02*
D03*
Y49843D02*
D03*
Y59842D02*
D03*
Y69842D02*
D03*
Y79843D02*
D03*
Y89842D02*
D03*
Y99843D02*
D03*
Y109843D02*
D03*
Y119843D02*
D03*
Y129842D02*
D03*
Y139842D02*
D03*
Y149843D02*
D03*
Y159843D02*
D03*
Y169843D02*
D03*
Y179842D02*
D03*
Y189842D02*
D03*
Y199843D02*
D03*
X12795Y29842D02*
D03*
Y39843D02*
D03*
Y49843D02*
D03*
Y59842D02*
D03*
Y69842D02*
D03*
Y79843D02*
D03*
Y89842D02*
D03*
Y99843D02*
D03*
Y109843D02*
D03*
Y119843D02*
D03*
Y129842D02*
D03*
Y139842D02*
D03*
Y149843D02*
D03*
Y159843D02*
D03*
Y169843D02*
D03*
Y179842D02*
D03*
Y189842D02*
D03*
Y199843D02*
D03*
X22795Y29842D02*
D03*
Y39843D02*
D03*
Y49843D02*
D03*
Y59842D02*
D03*
Y69842D02*
D03*
Y79843D02*
D03*
Y89842D02*
D03*
Y99843D02*
D03*
Y109843D02*
D03*
Y119843D02*
D03*
Y129842D02*
D03*
Y139842D02*
D03*
Y149843D02*
D03*
Y159843D02*
D03*
Y169843D02*
D03*
Y179842D02*
D03*
Y189842D02*
D03*
Y199843D02*
D03*
X262795Y29842D02*
D03*
Y39843D02*
D03*
Y49843D02*
D03*
Y59842D02*
D03*
Y69842D02*
D03*
Y79843D02*
D03*
Y89842D02*
D03*
Y99843D02*
D03*
Y109843D02*
D03*
Y119843D02*
D03*
Y129842D02*
D03*
Y139842D02*
D03*
Y149843D02*
D03*
Y159843D02*
D03*
Y169843D02*
D03*
Y179842D02*
D03*
Y189842D02*
D03*
Y199843D02*
D03*
D19*
X191339Y41732D02*
D03*
X132283Y66929D02*
D03*
X116929Y112598D02*
D03*
X124897Y180315D02*
D03*
X33465Y37091D02*
D03*
X234755Y179134D02*
D03*
X217323Y19291D02*
D03*
X166142Y205512D02*
D03*
X115748Y143416D02*
D03*
X123478Y142654D02*
D03*
X124803Y127665D02*
D03*
X102169Y9843D02*
D03*
X85039Y148425D02*
D03*
X93104Y148425D02*
D03*
X79528Y162205D02*
D03*
X69703Y64173D02*
D03*
X66896Y123123D02*
D03*
X56855Y167480D02*
D03*
X209449Y77953D02*
D03*
X209615Y108267D02*
D03*
X32866Y69788D02*
D03*
X60319Y72918D02*
D03*
X208268Y95669D02*
D03*
X209170Y127165D02*
D03*
X31796Y140157D02*
D03*
X32760Y79921D02*
D03*
X29697Y94724D02*
D03*
X187402Y186221D02*
D03*
X57874Y209449D02*
D03*
X58214Y194039D02*
D03*
X124600Y40000D02*
D03*
X93700Y14000D02*
D03*
X210800Y145800D02*
D03*
X183465Y142913D02*
D03*
X157700Y159600D02*
D03*
X74000Y29700D02*
D03*
X159400Y96700D02*
D03*
X161059Y122441D02*
D03*
X161000Y55800D02*
D03*
X125200Y81300D02*
D03*
X33000Y109200D02*
D03*
X61000Y97700D02*
D03*
X77559Y144488D02*
D03*
X78681Y85827D02*
D03*
X68898Y147638D02*
D03*
X97244Y205906D02*
D03*
X76378Y185433D02*
D03*
X72441Y159449D02*
D03*
X67323Y130709D02*
D03*
X70472Y114961D02*
D03*
X79528Y179134D02*
D03*
X75197Y132283D02*
D03*
X84248Y121256D02*
D03*
X182677Y112598D02*
D03*
X192520Y140157D02*
D03*
X61417Y177953D02*
D03*
X69685Y193701D02*
D03*
X193307Y180315D02*
D03*
X167323Y83858D02*
D03*
X233858Y62992D02*
D03*
X76378Y68898D02*
D03*
X114567Y15354D02*
D03*
X121704Y22047D02*
D03*
X129134Y35236D02*
D03*
X233366Y33071D02*
D03*
X173622Y83858D02*
D03*
X234252Y93307D02*
D03*
X233366Y153543D02*
D03*
X201575D02*
D03*
X121260Y9449D02*
D03*
X92913Y51968D02*
D03*
X117323Y56693D02*
D03*
X75984Y122835D02*
D03*
X170079Y56299D02*
D03*
X233350Y123615D02*
D03*
X215669Y163386D02*
D03*
M02*
