M48
;Layer_Color=9474304
;FILE_FORMAT=2:5
INCH,LZ
;TYPE=PLATED
T1F00S00C0.01181
T2F00S00C0.03150
T3F00S00C0.03543
%
T01
X0033465Y0037091
X0074Y00297
X00937Y0014
X0102169Y0009843
X0114567Y0015354
X012126Y0009449
X0121704Y0022047
X0129134Y0035236
X01246Y004
X0092913Y0051968
X0161Y00558
X0191339Y0041732
X0217323Y0019291
X0233366Y0033071
X0233858Y0062992
X0234252Y0093307
X023335Y0123615
X0233366Y0153543
X0234755Y0179134
X0215669Y0163386
X02108Y01458
X0201575Y0153543
X019252Y0140157
X0183465Y0142913
X0182677Y0112598
X0209615Y0108267
X0208268Y0095669
X0209449Y0077953
X0173622Y0083858
X0167323Y0083858
X01594Y00967
X0161059Y0122441
X01577Y01596
X0123478Y0142654
X0115748Y0143416
X0124803Y0127665
X0116929Y0112598
X01252Y00813
X0132283Y0066929
X0117323Y0056693
X0076378Y0068898
X0069703Y0064173
X0060319Y0072918
X0061Y00977
X0070472Y0114961
X0066896Y0123123
X0067323Y0130709
X0075197Y0132283
X0075984Y0122835
X0084248Y0121256
X0085039Y0148425
X0093104Y0148425
X0077559Y0144488
X0068898Y0147638
X0072441Y0159449
X0079528Y0162205
Y0179134
X0076378Y0185433
X0069685Y0193701
X0058214Y0194039
X0057874Y0209449
X0061417Y0177953
X0056855Y016748
X0097244Y0205906
X0124897Y0180315
X0166142Y0205512
X0187402Y0186221
X0193307Y0180315
X020917Y0127165
X0170079Y0056299
X0078681Y0085827
X003276Y0079921
X0032866Y0069788
X0029697Y0094724
X0033Y01092
X0031796Y0140157
T02
X0012795Y0019842
Y0029842
Y0039843
Y0049843
X0022795
Y0039843
Y0029842
Y0019842
X0139606Y0026378
X0149606
X0149764Y0009055
X0139764
Y0043701
X0149764
X0252795Y0039843
Y0029842
Y0019842
X0262795
Y0029842
Y0039843
Y0049843
X0252795
Y0059842
Y0069842
Y0079843
Y0089842
Y0099843
Y0109843
Y0119843
Y0129842
Y0139842
Y0149843
Y0159843
Y0169843
Y0179842
Y0189842
Y0199843
X0262795
Y0189842
Y0179842
Y0169843
Y0159843
Y0149843
Y0139842
Y0129842
Y0119843
Y0109843
Y0099843
Y0089842
Y0079843
Y0069842
Y0059842
X0223228Y0183858
X0213228
X0149764Y0182283
X0139764
X0139606Y0199213
X0149606
Y0164961
X0139606
Y0147638
X0149606
Y0130315
X0139606
Y0112992
X0149606
Y0095276
X0139606
Y0078347
X0149606
X0149764Y0061417
X0139764
X0022795Y0059842
X0012795
Y0069842
Y0079843
Y0089842
Y0099843
Y0109843
Y0119843
Y0129842
Y0139842
Y0149843
Y0159843
Y0169843
Y0179842
Y0189842
Y0199843
X0022795
Y0189842
Y0179842
Y0169843
Y0159843
Y0149843
Y0139842
Y0129842
Y0119843
Y0109843
Y0099843
Y0089842
Y0079843
Y0069842
X0139606Y0216929
X0149606
T03
X0045512Y0032362
Y0042362
Y0052362
X0105512
Y0042362
Y0032362
Y0062362
Y0072362
Y0082362
Y0092362
Y0102362
Y0112362
Y0122362
Y0132362
Y0142362
Y0152362
Y0162362
Y0172362
Y0182362
X0045512
Y0172362
Y0162362
Y0152362
Y0142362
Y0132362
Y0122362
Y0112362
Y0102362
Y0092362
Y0082362
Y0072362
Y0062362
M30
