G04*
G04 #@! TF.GenerationSoftware,Altium Limited,Altium Designer,19.0.15 (446)*
G04*
G04 Layer_Color=32896*
%FSLAX25Y25*%
%MOIN*%
G70*
G01*
G75*
%ADD10C,0.00787*%
%ADD11C,0.01000*%
%ADD36C,0.02000*%
%ADD37R,0.06299X0.01575*%
D10*
X259497Y12205D02*
G03*
X259497Y12205I-1623J0D01*
G01*
X19340D02*
G03*
X19340Y12205I-1623J0D01*
G01*
X205906Y21811D02*
X229528D01*
X205906D02*
Y45433D01*
X229528D01*
Y21811D02*
Y45433D01*
X175984Y27559D02*
X182283D01*
Y41535D01*
X175984D02*
X182283D01*
X175984Y27559D02*
Y41535D01*
X40472Y27047D02*
Y187677D01*
Y27047D02*
X110551D01*
Y187677D01*
X40472D02*
X110551D01*
X52756Y194882D02*
Y206693D01*
X46457Y194882D02*
X52756D01*
X46457D02*
Y206693D01*
X52756D01*
X134764Y211024D02*
Y222835D01*
X154449D01*
Y211024D02*
Y222835D01*
X134764Y211024D02*
X154449D01*
X36220Y194882D02*
Y206693D01*
X42520D01*
Y194882D02*
Y206693D01*
X36220Y194882D02*
X42520D01*
X175984Y176772D02*
X182283D01*
Y190748D01*
X175984D02*
X182283D01*
X175984Y176772D02*
Y190748D01*
Y146457D02*
X182283D01*
Y160433D01*
X175984D02*
X182283D01*
X175984Y146457D02*
Y160433D01*
Y117323D02*
X182283D01*
Y131299D01*
X175984D02*
X182283D01*
X175984Y117323D02*
Y131299D01*
Y87008D02*
X182283D01*
Y100984D01*
X175984D02*
X182283D01*
X175984Y87008D02*
Y100984D01*
Y57677D02*
X182283D01*
Y71653D01*
X175984D02*
X182283D01*
X175984Y57677D02*
Y71653D01*
X208386Y177953D02*
Y189764D01*
X228071D01*
Y177953D02*
Y189764D01*
X208386Y177953D02*
X228071D01*
X154449Y89370D02*
Y101181D01*
X134764Y89370D02*
X154449D01*
X134764D02*
Y101181D01*
X154449D01*
Y107087D02*
Y118898D01*
X134764Y107087D02*
X154449D01*
X134764D02*
Y118898D01*
X154449D01*
Y124409D02*
Y136221D01*
X134764Y124409D02*
X154449D01*
X134764D02*
Y136221D01*
X154449D01*
X154606Y3150D02*
Y14961D01*
X134921Y3150D02*
X154606D01*
X134921D02*
Y14961D01*
X154606D01*
X154449Y141732D02*
Y153543D01*
X134764Y141732D02*
X154449D01*
X134764D02*
Y153543D01*
X154449D01*
X134764Y20472D02*
Y32283D01*
X154449D01*
Y20472D02*
Y32283D01*
X134764Y20472D02*
X154449D01*
Y159055D02*
Y170866D01*
X134764Y159055D02*
X154449D01*
X134764D02*
Y170866D01*
X154449D01*
X134921Y37795D02*
Y49606D01*
X154606D01*
Y37795D02*
Y49606D01*
X134921Y37795D02*
X154606D01*
X134921Y176378D02*
Y188189D01*
X154606D01*
Y176378D02*
Y188189D01*
X134921Y176378D02*
X154606D01*
X134921Y55512D02*
Y67323D01*
X154606D01*
Y55512D02*
Y67323D01*
X134921Y55512D02*
X154606D01*
X134764Y193307D02*
Y205118D01*
X154449D01*
Y193307D02*
Y205118D01*
X134764Y193307D02*
X154449D01*
X134764Y72441D02*
Y84252D01*
X154449D01*
Y72441D02*
Y84252D01*
X134764Y72441D02*
X154449D01*
X167323Y178937D02*
X173622D01*
Y190748D01*
X167323D02*
X173622D01*
X167323Y178937D02*
Y190748D01*
X166929Y148622D02*
X173228D01*
Y160433D01*
X166929D02*
X173228D01*
X166929Y148622D02*
Y160433D01*
Y119488D02*
X173228D01*
Y131299D01*
X166929D02*
X173228D01*
X166929Y119488D02*
Y131299D01*
Y89173D02*
X173228D01*
Y100984D01*
X166929D02*
X173228D01*
X166929Y89173D02*
Y100984D01*
Y59842D02*
X173228D01*
Y71653D01*
X166929D02*
X173228D01*
X166929Y59842D02*
Y71653D01*
Y29823D02*
X173228D01*
Y41634D01*
X166929D02*
X173228D01*
X166929Y29823D02*
Y41634D01*
X205906Y141811D02*
X229528D01*
X205906D02*
Y165433D01*
X229528D01*
Y141811D02*
Y165433D01*
X229511Y111804D02*
Y135426D01*
X205889D02*
X229511D01*
X205889Y111804D02*
Y135426D01*
Y111804D02*
X229511D01*
X205906Y81811D02*
X229528D01*
X205906D02*
Y105433D01*
X229528D01*
Y81811D02*
Y105433D01*
Y51811D02*
Y75433D01*
X205906D02*
X229528D01*
X205906Y51811D02*
Y75433D01*
Y51811D02*
X229528D01*
D11*
X190027Y37140D02*
X189371Y37796D01*
Y39108D01*
X190027Y39764D01*
X190683D01*
X191339Y39108D01*
Y37796D01*
X191995Y37140D01*
X192651D01*
X193307Y37796D01*
Y39108D01*
X192651Y39764D01*
X189371Y35828D02*
X193307D01*
X191995Y34516D01*
X193307Y33204D01*
X189371D01*
Y29269D02*
Y31892D01*
X191339D01*
X190683Y30580D01*
Y29924D01*
X191339Y29269D01*
X192651D01*
X193307Y29924D01*
Y31236D01*
X192651Y31892D01*
X182382Y49310D02*
Y45374D01*
X180414D01*
X179758Y46030D01*
Y48654D01*
X180414Y49310D01*
X182382D01*
X175822D02*
X177134Y48654D01*
X178446Y47342D01*
Y46030D01*
X177790Y45374D01*
X176478D01*
X175822Y46030D01*
Y46686D01*
X176478Y47342D01*
X178446D01*
X115712Y197060D02*
Y192062D01*
X114712Y191062D01*
X112713D01*
X111713Y192062D01*
Y197060D01*
X109714Y191062D02*
X107714D01*
X108714D01*
Y197060D01*
X109714Y196061D01*
X49476Y213380D02*
X50132Y214036D01*
X51444D01*
X52100Y213380D01*
Y210756D01*
X51444Y210100D01*
X50132D01*
X49476Y210756D01*
X45540Y210100D02*
X48164D01*
X45540Y212724D01*
Y213380D01*
X46196Y214036D01*
X47508D01*
X48164Y213380D01*
X131102Y220472D02*
X128479D01*
X127167Y219161D01*
X128479Y217849D01*
X131102D01*
X129135D01*
Y220472D01*
X127823Y216537D02*
X127167Y215881D01*
Y214569D01*
X127823Y213913D01*
X130446D01*
X131102Y214569D01*
Y215881D01*
X130446Y216537D01*
X127823D01*
X38715Y213516D02*
X39371Y214172D01*
X40683D01*
X41339Y213516D01*
Y210892D01*
X40683Y210236D01*
X39371D01*
X38715Y210892D01*
X37403Y210236D02*
X36091D01*
X36747D01*
Y214172D01*
X37403Y213516D01*
X182283Y198030D02*
Y194095D01*
X180316D01*
X179660Y194750D01*
Y197374D01*
X180316Y198030D01*
X182283D01*
X178348Y194095D02*
X177036D01*
X177692D01*
Y198030D01*
X178348Y197374D01*
X182283Y167715D02*
Y163779D01*
X180316D01*
X179660Y164436D01*
Y167059D01*
X180316Y167715D01*
X182283D01*
X175724Y163779D02*
X178348D01*
X175724Y166403D01*
Y167059D01*
X176380Y167715D01*
X177692D01*
X178348Y167059D01*
X182283Y138581D02*
Y134646D01*
X180316D01*
X179660Y135302D01*
Y137926D01*
X180316Y138581D01*
X182283D01*
X178348Y137926D02*
X177692Y138581D01*
X176380D01*
X175724Y137926D01*
Y137269D01*
X176380Y136614D01*
X177036D01*
X176380D01*
X175724Y135958D01*
Y135302D01*
X176380Y134646D01*
X177692D01*
X178348Y135302D01*
X182185Y108955D02*
Y105020D01*
X180217D01*
X179561Y105676D01*
Y108300D01*
X180217Y108955D01*
X182185D01*
X176281Y105020D02*
Y108955D01*
X178249Y106988D01*
X175626D01*
X182283Y79526D02*
Y75590D01*
X180316D01*
X179660Y76247D01*
Y78870D01*
X180316Y79526D01*
X182283D01*
X175724D02*
X178348D01*
Y77558D01*
X177036Y78214D01*
X176380D01*
X175724Y77558D01*
Y76247D01*
X176380Y75590D01*
X177692D01*
X178348Y76247D01*
X201232Y190100D02*
Y187476D01*
X199920Y188788D02*
X202544D01*
X199264Y183540D02*
Y186164D01*
X201232D01*
X200576Y184852D01*
Y184196D01*
X201232Y183540D01*
X202544D01*
X203200Y184196D01*
Y185508D01*
X202544Y186164D01*
X199264Y182229D02*
X201888D01*
X203200Y180917D01*
X201888Y179605D01*
X199264D01*
X131496Y97638D02*
X128872D01*
X127560Y96326D01*
X128872Y95014D01*
X131496D01*
X129528D01*
Y97638D01*
X127560Y93702D02*
Y91078D01*
X128216D01*
X130840Y93702D01*
X131496D01*
X131890Y116142D02*
X129266D01*
X127954Y114830D01*
X129266Y113518D01*
X131890D01*
X129922D01*
Y116142D01*
X127954Y109582D02*
X128610Y110894D01*
X129922Y112206D01*
X131234D01*
X131890Y111550D01*
Y110238D01*
X131234Y109582D01*
X130578D01*
X129922Y110238D01*
Y112206D01*
X131496Y133465D02*
X128872D01*
X127560Y132153D01*
X128872Y130841D01*
X131496D01*
X129528D01*
Y133465D01*
X127560Y126905D02*
Y129529D01*
X129528D01*
X128872Y128217D01*
Y127561D01*
X129528Y126905D01*
X130840D01*
X131496Y127561D01*
Y128873D01*
X130840Y129529D01*
X127560Y14173D02*
X131496D01*
Y12205D01*
X130840Y11549D01*
X128216D01*
X127560Y12205D01*
Y14173D01*
X130840Y7614D02*
X128216D01*
X127560Y8270D01*
Y9582D01*
X128216Y10238D01*
X130840D01*
X131496Y9582D01*
Y8270D01*
X130184Y8926D02*
X131496Y7614D01*
Y8270D02*
X130840Y7614D01*
X127560Y6302D02*
Y3678D01*
X128216D01*
X130840Y6302D01*
X131496D01*
Y150787D02*
X128872D01*
X127560Y149476D01*
X128872Y148164D01*
X131496D01*
X129528D01*
Y150787D01*
X131496Y144884D02*
X127560D01*
X129528Y146852D01*
Y144228D01*
X127954Y31496D02*
X131890D01*
Y29528D01*
X131234Y28872D01*
X128610D01*
X127954Y29528D01*
Y31496D01*
X131234Y24937D02*
X128610D01*
X127954Y25592D01*
Y26904D01*
X128610Y27560D01*
X131234D01*
X131890Y26904D01*
Y25592D01*
X130578Y26248D02*
X131890Y24937D01*
Y25592D02*
X131234Y24937D01*
X127954Y21001D02*
X128610Y22313D01*
X129922Y23625D01*
X131234D01*
X131890Y22969D01*
Y21657D01*
X131234Y21001D01*
X130578D01*
X129922Y21657D01*
Y23625D01*
X131496Y168504D02*
X128872D01*
X127560Y167192D01*
X128872Y165880D01*
X131496D01*
X129528D01*
Y168504D01*
X128216Y164568D02*
X127560Y163912D01*
Y162600D01*
X128216Y161944D01*
X128872D01*
X129528Y162600D01*
Y163256D01*
Y162600D01*
X130184Y161944D01*
X130840D01*
X131496Y162600D01*
Y163912D01*
X130840Y164568D01*
X127560Y48819D02*
X131496D01*
Y46851D01*
X130840Y46195D01*
X128216D01*
X127560Y46851D01*
Y48819D01*
X130840Y42259D02*
X128216D01*
X127560Y42915D01*
Y44227D01*
X128216Y44883D01*
X130840D01*
X131496Y44227D01*
Y42915D01*
X130184Y43571D02*
X131496Y42259D01*
Y42915D02*
X130840Y42259D01*
X127560Y38324D02*
Y40947D01*
X129528D01*
X128872Y39636D01*
Y38980D01*
X129528Y38324D01*
X130840D01*
X131496Y38980D01*
Y40292D01*
X130840Y40947D01*
X131496Y185827D02*
X128872D01*
X127560Y184515D01*
X128872Y183203D01*
X131496D01*
X129528D01*
Y185827D01*
X131496Y179267D02*
Y181891D01*
X128872Y179267D01*
X128216D01*
X127560Y179923D01*
Y181235D01*
X128216Y181891D01*
X127560Y66535D02*
X131496D01*
Y64568D01*
X130840Y63912D01*
X128216D01*
X127560Y64568D01*
Y66535D01*
X130840Y59976D02*
X128216D01*
X127560Y60632D01*
Y61944D01*
X128216Y62600D01*
X130840D01*
X131496Y61944D01*
Y60632D01*
X130184Y61288D02*
X131496Y59976D01*
Y60632D02*
X130840Y59976D01*
X131496Y56696D02*
X127560D01*
X129528Y58664D01*
Y56040D01*
X131496Y201969D02*
X128872D01*
X127560Y200657D01*
X128872Y199345D01*
X131496D01*
X129528D01*
Y201969D01*
X131496Y198033D02*
Y196721D01*
Y197377D01*
X127560D01*
X128216Y198033D01*
X127560Y83465D02*
X131496D01*
Y81497D01*
X130840Y80841D01*
X128216D01*
X127560Y81497D01*
Y83465D01*
X130840Y76905D02*
X128216D01*
X127560Y77561D01*
Y78873D01*
X128216Y79529D01*
X130840D01*
X131496Y78873D01*
Y77561D01*
X130184Y78217D02*
X131496Y76905D01*
Y77561D02*
X130840Y76905D01*
X128216Y75593D02*
X127560Y74937D01*
Y73625D01*
X128216Y72969D01*
X128872D01*
X129528Y73625D01*
Y74281D01*
Y73625D01*
X130184Y72969D01*
X130840D01*
X131496Y73625D01*
Y74937D01*
X130840Y75593D01*
X172047Y194095D02*
Y198030D01*
X170079D01*
X169423Y197374D01*
Y196062D01*
X170079Y195406D01*
X172047D01*
X170735D02*
X169423Y194095D01*
X168112D02*
X166800D01*
X167455D01*
Y198030D01*
X168112Y197374D01*
X172047Y163779D02*
Y167715D01*
X170079D01*
X169423Y167059D01*
Y165747D01*
X170079Y165091D01*
X172047D01*
X170735D02*
X169423Y163779D01*
X165488D02*
X168112D01*
X165488Y166403D01*
Y167059D01*
X166144Y167715D01*
X167455D01*
X168112Y167059D01*
X172047Y134646D02*
Y138581D01*
X170079D01*
X169423Y137926D01*
Y136614D01*
X170079Y135958D01*
X172047D01*
X170735D02*
X169423Y134646D01*
X168112Y137926D02*
X167455Y138581D01*
X166144D01*
X165488Y137926D01*
Y137269D01*
X166144Y136614D01*
X166800D01*
X166144D01*
X165488Y135958D01*
Y135302D01*
X166144Y134646D01*
X167455D01*
X168112Y135302D01*
X172736Y105020D02*
Y108955D01*
X170768D01*
X170112Y108300D01*
Y106988D01*
X170768Y106332D01*
X172736D01*
X171424D02*
X170112Y105020D01*
X166833D02*
Y108955D01*
X168800Y106988D01*
X166177D01*
X172047Y75590D02*
Y79526D01*
X170079D01*
X169423Y78870D01*
Y77558D01*
X170079Y76903D01*
X172047D01*
X170735D02*
X169423Y75590D01*
X165488Y79526D02*
X168112D01*
Y77558D01*
X166800Y78214D01*
X166144D01*
X165488Y77558D01*
Y76247D01*
X166144Y75590D01*
X167455D01*
X168112Y76247D01*
X172244Y45374D02*
Y49310D01*
X170276D01*
X169620Y48654D01*
Y47342D01*
X170276Y46686D01*
X172244D01*
X170932D02*
X169620Y45374D01*
X165684Y49310D02*
X166996Y48654D01*
X168308Y47342D01*
Y46030D01*
X167652Y45374D01*
X166340D01*
X165684Y46030D01*
Y46686D01*
X166340Y47342D01*
X168308D01*
X190027Y156038D02*
X189371Y156694D01*
Y158005D01*
X190027Y158661D01*
X190683D01*
X191339Y158005D01*
Y156694D01*
X191995Y156038D01*
X192651D01*
X193307Y156694D01*
Y158005D01*
X192651Y158661D01*
X189371Y154726D02*
X193307D01*
X191995Y153414D01*
X193307Y152102D01*
X189371D01*
X193307Y150790D02*
Y149478D01*
Y150134D01*
X189371D01*
X190027Y150790D01*
X190798Y126503D02*
X190142Y127159D01*
Y128471D01*
X190798Y129127D01*
X191454D01*
X192110Y128471D01*
Y127159D01*
X192766Y126503D01*
X193422D01*
X194078Y127159D01*
Y128471D01*
X193422Y129127D01*
X190142Y125191D02*
X194078D01*
X192766Y123879D01*
X194078Y122567D01*
X190142D01*
X194078Y118631D02*
Y121255D01*
X191454Y118631D01*
X190798D01*
X190142Y119287D01*
Y120599D01*
X190798Y121255D01*
X190027Y96983D02*
X189371Y97638D01*
Y98950D01*
X190027Y99606D01*
X190683D01*
X191339Y98950D01*
Y97638D01*
X191995Y96983D01*
X192651D01*
X193307Y97638D01*
Y98950D01*
X192651Y99606D01*
X189371Y95671D02*
X193307D01*
X191995Y94359D01*
X193307Y93047D01*
X189371D01*
X190027Y91735D02*
X189371Y91079D01*
Y89767D01*
X190027Y89111D01*
X190683D01*
X191339Y89767D01*
Y90423D01*
Y89767D01*
X191995Y89111D01*
X192651D01*
X193307Y89767D01*
Y91079D01*
X192651Y91735D01*
X190027Y66667D02*
X189371Y67323D01*
Y68635D01*
X190027Y69291D01*
X190683D01*
X191339Y68635D01*
Y67323D01*
X191995Y66667D01*
X192651D01*
X193307Y67323D01*
Y68635D01*
X192651Y69291D01*
X189371Y65356D02*
X193307D01*
X191995Y64044D01*
X193307Y62732D01*
X189371D01*
X193307Y59452D02*
X189371D01*
X191339Y61420D01*
Y58796D01*
D36*
X115682Y182362D02*
G03*
X115682Y182362I-800J0D01*
G01*
D37*
X179134Y28347D02*
D03*
X179133Y177559D02*
D03*
X179134Y147245D02*
D03*
X179134Y118111D02*
D03*
Y87796D02*
D03*
X179134Y58465D02*
D03*
M02*
